<?xml version="1.0" encoding="utf-8"?>
<!-- Generator: Adobe Illustrator 24.1.2, SVG Export Plug-In . SVG Version: 6.00 Build 0)  -->
<svg version="1.1" id="Layer_1" xmlns="http://www.w3.org/2000/svg" xmlns:xlink="http://www.w3.org/1999/xlink" x="0px" y="0px"
	 viewBox="0 0 841.9 595.3" style="enable-background:new 0 0 841.9 595.3;" xml:space="preserve">
<style type="text/css">
	.st0{fill:#FFFFFF;}
</style>
<g>
	<g>
		<path class="st0" d="M183.3,242.6v15.1h-76.7c-5.9,0-10.5,4.9-10.6,10.6H81c0.4-14.2,11.3-25.7,25.7-25.7H183.3z M168.3,311.2
			c0-6-5-9.3-10.6-9.3h-51c-13.9,0-24.6-10.8-25.7-24.4h15.2c0.7,5.2,5.2,9.3,10.5,9.3h51c13.9,0,25.7,10.1,25.7,24.4v18.5
			c-7.8,7.9-13.6,15.1-25.7,15.1H81v-15.1h76.7c5.7,0,10.6-4.9,10.6-10.6V311.2z"/>
		<path class="st0" d="M300.2,257.7H197.7v-15.1h102.5V257.7z M300.1,344.8H197.7v-58H285v15.1h-72.2v27.9h87.3V344.8z"/>
		<path class="st0" d="M323.2,257.7h-8.6v-15.1h15.1l72.2,79v-79h15.1v102.2h-14.1L323.2,257.7z M329.6,344.8h-15.1v-58h15.1V344.8z
			"/>
		<path class="st0" d="M474.9,257.7h-43.6v-15.1H490v102.2h-15.1V257.7z M533.7,257.7h-28.6v-15.1h28.6V257.7z"/>
		<path class="st0" d="M548,286.8h76.7c8,0,10.6-6.5,10.6-15.9c0-5.2-0.7-13.2-10.6-13.2H548v-15.1h76.7c14.2,0,25.7,11.5,25.7,25.7
			v7.9c0,14.2-11.5,25.7-25.7,25.7h-11.1l36.8,42.9h-19.8l-36.8-42.9h-30.7v42.9H548V286.8z"/>
		<path class="st0" d="M679,344.8h-16.4l24.8-58h16.4l-6.5,15.1h32.9L705,242.6h16.4L765,344.8h-16.4L736.7,317h-45.8L679,344.8z"/>
	</g>
</g>
</svg>
