<?xml version="1.0" encoding="utf-8"?>
<!-- Generator: Adobe Illustrator 24.1.2, SVG Export Plug-In . SVG Version: 6.00 Build 0)  -->
<svg version="1.1" id="Layer_1" xmlns="http://www.w3.org/2000/svg" xmlns:xlink="http://www.w3.org/1999/xlink" x="0px" y="0px"
	 viewBox="0 0 201.6 30.2" style="enable-background:new 0 0 201.6 30.2;" xml:space="preserve">
<style type="text/css">
	.st0{fill:#FFFFFF;}
</style>
<g>
	<g>
		<path class="st0" d="M30.8,0.1v4.4H8.3C6.6,4.5,5.2,6,5.2,7.7H0.8c0.1-4.2,3.3-7.5,7.5-7.5H30.8z M26.4,20.3
			c0-1.8-1.5-2.7-3.1-2.7h-15c-4.1,0-7.2-3.2-7.5-7.2h4.5c0.2,1.5,1.5,2.7,3.1,2.7h15c4.1,0,7.5,3,7.5,7.2v5.4
			c-2.3,2.3-4,4.4-7.5,4.4H0.8v-4.4h22.5c1.7,0,3.1-1.4,3.1-3.1V20.3z"/>
		<path class="st0" d="M65.1,4.5H35V0.1h30.1V4.5z M65.1,30.1H35v-17h25.6v4.4H39.5v8.2h25.6V30.1z"/>
		<path class="st0" d="M71.9,4.5h-2.5V0.1h4.4L95,23.3V0.1h4.4v30h-4.1L71.9,4.5z M73.8,30.1h-4.4v-17h4.4V30.1z"/>
		<path class="st0" d="M116.4,4.5h-12.8V0.1h17.2v30h-4.4V4.5z M133.7,4.5h-8.4V0.1h8.4V4.5z"/>
		<path class="st0" d="M137.9,13.1h22.5c2.4,0,3.1-1.9,3.1-4.7c0-1.5-0.2-3.9-3.1-3.9h-22.5V0.1h22.5c4.2,0,7.5,3.4,7.5,7.5V10
			c0,4.2-3.4,7.5-7.5,7.5h-3.2l10.8,12.6h-5.8l-10.8-12.6h-9v12.6h-4.4V13.1z"/>
		<path class="st0" d="M176.3,30.1h-4.8l7.3-17h4.8l-1.9,4.4h9.7L184,0.1h4.8l12.8,30h-4.8l-3.5-8.2h-13.4L176.3,30.1z"/>
	</g>
</g>
</svg>
