<svg id="Layer_1" data-name="Layer 1" xmlns="http://www.w3.org/2000/svg" viewBox="0 0 199.16 44"><defs><style>.cls-1{fill:#fff;}.cls-2{fill:#231f20;}.cls-3{fill:#f79432;}</style></defs><path class="cls-1" d="M33.13.29V4.64H11.05A3.1,3.1,0,0,0,8,7.7H3.65A7.44,7.44,0,0,1,11.05.29ZM28.79,20.06a2.78,2.78,0,0,0-3.06-2.69H11.05a7.46,7.46,0,0,1-7.4-7H8a3.11,3.11,0,0,0,3,2.69H25.73a7.11,7.11,0,0,1,7.4,7V25.4c-2.23,2.27-3.93,4.34-7.4,4.34H3.65V25.4H25.73a3.11,3.11,0,0,0,3.06-3.07Z" transform="translate(-3.17 -0.29)"/><path class="cls-1" d="M66.79,4.64H37.27V.29H66.79Zm0,25.1H37.27V13H62.41v4.34H41.61v8H66.75Z" transform="translate(-3.17 -0.29)"/><path class="cls-1" d="M73.42,4.64H70.93V.29h4.35L96.08,23V.29h4.34V29.74h-4Zm1.86,25.1H70.93V13h4.35Z" transform="translate(-3.17 -0.29)"/><path class="cls-1" d="M117.13,4.64H104.56V.29h16.91V29.74h-4.34Zm16.91,0h-8.23V.29H134Z" transform="translate(-3.17 -0.29)"/><path class="cls-1" d="M138.18,13h22.08c2.32,0,3.06-1.86,3.06-4.59,0-1.49-.2-3.8-3.06-3.8H138.18V.29h22.08a7.39,7.39,0,0,1,7.4,7.41V10a7.39,7.39,0,0,1-7.4,7.4h-3.18l10.58,12.37H162L151.37,17.37h-8.85V29.74h-4.34Z" transform="translate(-3.17 -0.29)"/><path class="cls-1" d="M175.9,29.74h-4.72L178.34,13h4.71l-1.86,4.34h9.47L183.38.29h4.72l12.57,29.45H196l-3.43-8H179.33Z" transform="translate(-3.17 -0.29)"/><path class="cls-1" d="M99.56,37.77a7.94,7.94,0,0,1,1.54-.14,2.7,2.7,0,0,1,1.79.48,1.39,1.39,0,0,1,.54,1.15,1.56,1.56,0,0,1-1.1,1.43v0a1.67,1.67,0,0,1,1.34,1.63,1.74,1.74,0,0,1-.55,1.3,3.26,3.26,0,0,1-2.25.61,9.59,9.59,0,0,1-1.31-.08Zm.84,2.67h.77c.89,0,1.41-.47,1.41-1.1s-.58-1.06-1.43-1.06a3.57,3.57,0,0,0-.75.06Zm0,3.11a4.45,4.45,0,0,0,.71,0c.87,0,1.67-.32,1.67-1.26s-.76-1.26-1.68-1.26h-.7Z" transform="translate(-3.17 -0.29)"/><path class="cls-1" d="M106.1,44.19V41.43L104,37.68h1l.92,1.8c.25.49.44.89.64,1.34h0c.19-.42.41-.85.66-1.34l.94-1.8h.95L107,41.42v2.77Z" transform="translate(-3.17 -0.29)"/><path class="cls-1" d="M116.47,44a4.26,4.26,0,0,1-1.72.31A3,3,0,0,1,111.53,41a3.24,3.24,0,0,1,3.4-3.42,3.42,3.42,0,0,1,1.55.29l-.2.68a3.17,3.17,0,0,0-1.32-.27A2.43,2.43,0,0,0,112.42,41a2.36,2.36,0,0,0,2.5,2.61,3.29,3.29,0,0,0,1.38-.27Z" transform="translate(-3.17 -0.29)"/><path class="cls-1" d="M117.52,37.68h.84v5.81h2.78v.7h-3.62Z" transform="translate(-3.17 -0.29)"/><path class="cls-1" d="M127.26,40.87c0,2.24-1.36,3.43-3,3.43S121.31,43,121.31,41s1.29-3.42,3-3.42S127.26,38.94,127.26,40.87Zm-5.05.11c0,1.39.76,2.63,2.08,2.63s2.09-1.22,2.09-2.7c0-1.3-.68-2.65-2.08-2.65S122.21,39.55,122.21,41Z" transform="translate(-3.17 -0.29)"/><path class="cls-1" d="M129.78,44.19l-2.12-6.51h.91l1,3.21c.28.88.52,1.67.7,2.43h0c.19-.75.46-1.57.75-2.42l1.1-3.22h.9l-2.33,6.51Z" transform="translate(-3.17 -0.29)"/><path class="cls-1" d="M137.11,41.14h-2.53v2.35h2.82v.7h-3.66V37.68h3.52v.71h-2.68v2h2.53Z" transform="translate(-3.17 -0.29)"/><path class="cls-1" d="M141.38,38.4h-2v-.72h4.82v.72h-2v5.79h-.85Z" transform="translate(-3.17 -0.29)"/><path class="cls-1" d="M148.31,41.14h-2.53v2.35h2.82v.7h-3.66V37.68h3.52v.71h-2.68v2h2.53Z" transform="translate(-3.17 -0.29)"/><path class="cls-1" d="M154.24,44a4.26,4.26,0,0,1-1.72.31A3,3,0,0,1,149.3,41a3.24,3.24,0,0,1,3.4-3.42,3.45,3.45,0,0,1,1.55.29l-.21.68a3.08,3.08,0,0,0-1.31-.27A2.43,2.43,0,0,0,150.19,41a2.36,2.36,0,0,0,2.5,2.61,3.21,3.21,0,0,0,1.37-.27Z" transform="translate(-3.17 -0.29)"/><path class="cls-1" d="M156.13,37.68v2.73h3.15V37.68h.85v6.51h-.85v-3h-3.15v3h-.84V37.68Z" transform="translate(-3.17 -0.29)"/><path class="cls-1" d="M161.58,44.19V37.68h.92l2.09,3.3a16.87,16.87,0,0,1,1.16,2.11h0c-.07-.87-.09-1.66-.09-2.67V37.68h.79v6.51h-.85l-2.07-3.3a19.83,19.83,0,0,1-1.21-2.17h0c.05.82.07,1.6.07,2.68v2.78Z" transform="translate(-3.17 -0.29)"/><path class="cls-1" d="M173.5,40.87c0,2.24-1.36,3.43-3,3.43S167.55,43,167.55,41s1.28-3.42,3-3.42S173.5,38.94,173.5,40.87Zm-5.05.11c0,1.39.75,2.63,2.07,2.63s2.09-1.22,2.09-2.7c0-1.3-.68-2.65-2.08-2.65S168.45,39.55,168.45,41Z" transform="translate(-3.17 -0.29)"/><path class="cls-1" d="M174.59,37.68h.84v5.81h2.78v.7h-3.62Z" transform="translate(-3.17 -0.29)"/><path class="cls-1" d="M184.33,40.87c0,2.24-1.36,3.43-3,3.43S178.38,43,178.38,41s1.29-3.42,3-3.42S184.33,38.94,184.33,40.87Zm-5.05.11c0,1.39.75,2.63,2.08,2.63s2.08-1.22,2.08-2.7c0-1.3-.67-2.65-2.07-2.65S179.28,39.55,179.28,41Z" transform="translate(-3.17 -0.29)"/><path class="cls-1" d="M190.38,43.9a6,6,0,0,1-2,.36A3.06,3.06,0,0,1,185,41a3.27,3.27,0,0,1,3.53-3.37,4.11,4.11,0,0,1,1.62.3l-.2.69a3.45,3.45,0,0,0-1.44-.28,2.44,2.44,0,0,0-2.62,2.62,2.38,2.38,0,0,0,2.51,2.62,2.69,2.69,0,0,0,1.12-.17V41.45h-1.32v-.68h2.15Z" transform="translate(-3.17 -0.29)"/><path class="cls-1" d="M192.5,37.68v6.51h-.84V37.68Z" transform="translate(-3.17 -0.29)"/><path class="cls-1" d="M197.33,41.14H194.8v2.35h2.82v.7H194V37.68h3.52v.71H194.8v2h2.53Z" transform="translate(-3.17 -0.29)"/><path class="cls-1" d="M198.6,43.17a3,3,0,0,0,1.5.42c.86,0,1.37-.45,1.37-1.11s-.35-.95-1.23-1.29c-1.06-.38-1.72-.93-1.72-1.85a1.87,1.87,0,0,1,2.11-1.76,3,3,0,0,1,1.44.31l-.24.69a2.5,2.5,0,0,0-1.23-.31c-.89,0-1.23.53-1.23,1,0,.61.4.91,1.3,1.25,1.1.43,1.66,1,1.66,1.92s-.75,1.87-2.28,1.87a3.31,3.31,0,0,1-1.67-.42Z" transform="translate(-3.17 -0.29)"/><line class="cls-2" x1="90.67" y1="41.06" y2="41.06"/><rect class="cls-3" y="40.56" width="90.67" height="1"/></svg>